<svg xmlns="http://www.w3.org/2000/svg" width="720pt" height="380pt" viewBox="0 0 720 380" role="img" aria-label="Fixed-endpoint mAP for six detectors, A B C arms, and blank D row">
<rect x="0" y="0" width="720" height="380" fill="#FFFFFF"/>
<text x="28" y="34.6" text-anchor="start" font-family="Arial, Helvetica, sans-serif" font-size="17" font-weight="700" fill="#1B3448">DETECTOR-WISE PERFORMANCE</text>
<text x="692" y="33.32" text-anchor="end" font-family="Arial, Helvetica, sans-serif" font-size="10.4" font-weight="400" fill="#566C7D">fixed endpoint  /  epoch 300  /  dev61 (n = 61)</text>
<line x1="28" y1="47" x2="692" y2="47" stroke="#C8D5DD" stroke-width="0.8"/>
<text x="168" y="76.2" text-anchor="start" font-family="Arial, Helvetica, sans-serif" font-size="14" font-weight="700" fill="#1B3448">(a)  mAP50-95</text>
<text x="417" y="76.16" text-anchor="end" font-family="Arial, Helvetica, sans-serif" font-size="10.2" font-weight="400" fill="#566C7D">PRIMARY ENDPOINT</text>
<line x1="168" y1="91" x2="417" y2="91" stroke="#9EB3C1" stroke-width="0.8"/>
<text x="187.5" y="111.72" text-anchor="middle" font-family="Arial, Helvetica, sans-serif" font-size="10.9" font-weight="700" fill="#566C7D">v8s</text>
<text x="229.5" y="111.72" text-anchor="middle" font-family="Arial, Helvetica, sans-serif" font-size="10.9" font-weight="700" fill="#566C7D">v8m</text>
<text x="271.5" y="111.72" text-anchor="middle" font-family="Arial, Helvetica, sans-serif" font-size="10.9" font-weight="700" fill="#566C7D">11s</text>
<text x="313.5" y="111.72" text-anchor="middle" font-family="Arial, Helvetica, sans-serif" font-size="10.9" font-weight="700" fill="#566C7D">11m</text>
<text x="355.5" y="111.72" text-anchor="middle" font-family="Arial, Helvetica, sans-serif" font-size="10.9" font-weight="700" fill="#566C7D">26s</text>
<text x="397.5" y="111.72" text-anchor="middle" font-family="Arial, Helvetica, sans-serif" font-size="10.9" font-weight="700" fill="#566C7D">26m</text>
<rect x="168" y="130" width="39" height="42" rx="3.2" fill="#809DA6" stroke="#D2E0E4" stroke-width="0.8"/>
<text x="187.5" y="151.96" text-anchor="middle" font-family="Arial, Helvetica, sans-serif" font-size="11.2" font-weight="700" fill="#000000">0.294</text>
<rect x="210" y="130" width="39" height="42" rx="3.2" fill="#95AEB5" stroke="#D2E0E4" stroke-width="0.8"/>
<text x="229.5" y="151.96" text-anchor="middle" font-family="Arial, Helvetica, sans-serif" font-size="11.2" font-weight="700" fill="#000000">0.209</text>
<rect x="252" y="130" width="39" height="42" rx="3.2" fill="#7E9CA4" stroke="#D2E0E4" stroke-width="0.8"/>
<text x="271.5" y="151.96" text-anchor="middle" font-family="Arial, Helvetica, sans-serif" font-size="11.2" font-weight="700" fill="#000000">0.301</text>
<rect x="294" y="130" width="39" height="42" rx="3.2" fill="#C0CFD4" stroke="#D2E0E4" stroke-width="0.8"/>
<text x="313.5" y="151.96" text-anchor="middle" font-family="Arial, Helvetica, sans-serif" font-size="11.2" font-weight="700" fill="#000000">0.076</text>
<rect x="336" y="130" width="39" height="42" rx="3.2" fill="#6A8B95" stroke="#D2E0E4" stroke-width="0.8"/>
<text x="355.5" y="151.96" text-anchor="middle" font-family="Arial, Helvetica, sans-serif" font-size="11.2" font-weight="700" fill="#000000">0.394</text>
<rect x="378" y="130" width="39" height="42" rx="3.2" fill="#90AAB1" stroke="#D2E0E4" stroke-width="0.8"/>
<text x="397.5" y="151.96" text-anchor="middle" font-family="Arial, Helvetica, sans-serif" font-size="11.2" font-weight="700" fill="#000000">0.229</text>
<rect x="168" y="178" width="39" height="42" rx="3.2" fill="#8DA7AF" stroke="#D2E0E4" stroke-width="0.8"/>
<text x="187.5" y="199.96" text-anchor="middle" font-family="Arial, Helvetica, sans-serif" font-size="11.2" font-weight="700" fill="#000000">0.240</text>
<rect x="210" y="178" width="39" height="42" rx="3.2" fill="#7C9AA3" stroke="#D2E0E4" stroke-width="0.8"/>
<text x="229.5" y="199.96" text-anchor="middle" font-family="Arial, Helvetica, sans-serif" font-size="11.2" font-weight="700" fill="#000000">0.310</text>
<rect x="252" y="178" width="39" height="42" rx="3.2" fill="#8CA7AF" stroke="#D2E0E4" stroke-width="0.8"/>
<text x="271.5" y="199.96" text-anchor="middle" font-family="Arial, Helvetica, sans-serif" font-size="11.2" font-weight="700" fill="#000000">0.243</text>
<rect x="294" y="178" width="39" height="42" rx="3.2" fill="#89A4AD" stroke="#D2E0E4" stroke-width="0.8"/>
<text x="313.5" y="199.96" text-anchor="middle" font-family="Arial, Helvetica, sans-serif" font-size="11.2" font-weight="700" fill="#000000">0.255</text>
<rect x="336" y="178" width="39" height="42" rx="3.2" fill="#77969F" stroke="#D2E0E4" stroke-width="0.8"/>
<text x="355.5" y="199.96" text-anchor="middle" font-family="Arial, Helvetica, sans-serif" font-size="11.2" font-weight="700" fill="#000000">0.331</text>
<rect x="378" y="178" width="39" height="42" rx="3.2" fill="#7F9CA5" stroke="#D2E0E4" stroke-width="0.8"/>
<text x="397.5" y="199.96" text-anchor="middle" font-family="Arial, Helvetica, sans-serif" font-size="11.2" font-weight="700" fill="#000000">0.297</text>
<rect x="168" y="226" width="39" height="42" rx="3.2" fill="#436C79" stroke="#D2E0E4" stroke-width="0.8"/>
<text x="187.5" y="247.96" text-anchor="middle" font-family="Arial, Helvetica, sans-serif" font-size="11.2" font-weight="700" fill="#FFFFFF">0.599</text>
<rect x="210" y="226" width="39" height="42" rx="3.2" fill="#49717D" stroke="#D2E0E4" stroke-width="0.8"/>
<text x="229.5" y="247.96" text-anchor="middle" font-family="Arial, Helvetica, sans-serif" font-size="11.2" font-weight="700" fill="#FFFFFF">0.565</text>
<rect x="252" y="226" width="39" height="42" rx="3.2" fill="#4A727E" stroke="#D2E0E4" stroke-width="0.8"/>
<text x="271.5" y="247.96" text-anchor="middle" font-family="Arial, Helvetica, sans-serif" font-size="11.2" font-weight="700" fill="#FFFFFF">0.555</text>
<rect x="294" y="226" width="39" height="42" rx="3.2" fill="#47707C" stroke="#D2E0E4" stroke-width="0.8"/>
<text x="313.5" y="247.96" text-anchor="middle" font-family="Arial, Helvetica, sans-serif" font-size="11.2" font-weight="700" fill="#FFFFFF">0.571</text>
<rect x="336" y="226" width="39" height="42" rx="3.2" fill="#416B77" stroke="#D2E0E4" stroke-width="0.8"/>
<text x="355.5" y="247.96" text-anchor="middle" font-family="Arial, Helvetica, sans-serif" font-size="11.2" font-weight="700" fill="#FFFFFF">0.610</text>
<rect x="378" y="226" width="39" height="42" rx="3.2" fill="#48717D" stroke="#D2E0E4" stroke-width="0.8"/>
<text x="397.5" y="247.96" text-anchor="middle" font-family="Arial, Helvetica, sans-serif" font-size="11.2" font-weight="700" fill="#FFFFFF">0.566</text>
<rect x="168" y="274" width="39" height="42" rx="3.2" fill="#FCFBFE" stroke="#B7A7D1" stroke-width="0.8" stroke-dasharray="3.5 2.5"/>
<rect x="210" y="274" width="39" height="42" rx="3.2" fill="#FCFBFE" stroke="#B7A7D1" stroke-width="0.8" stroke-dasharray="3.5 2.5"/>
<rect x="252" y="274" width="39" height="42" rx="3.2" fill="#FCFBFE" stroke="#B7A7D1" stroke-width="0.8" stroke-dasharray="3.5 2.5"/>
<rect x="294" y="274" width="39" height="42" rx="3.2" fill="#FCFBFE" stroke="#B7A7D1" stroke-width="0.8" stroke-dasharray="3.5 2.5"/>
<rect x="336" y="274" width="39" height="42" rx="3.2" fill="#FCFBFE" stroke="#B7A7D1" stroke-width="0.8" stroke-dasharray="3.5 2.5"/>
<rect x="378" y="274" width="39" height="42" rx="3.2" fill="#FCFBFE" stroke="#B7A7D1" stroke-width="0.8" stroke-dasharray="3.5 2.5"/>
<text x="442" y="76.2" text-anchor="start" font-family="Arial, Helvetica, sans-serif" font-size="14" font-weight="700" fill="#1B3448">(b)  mAP50</text>
<text x="691" y="76.16" text-anchor="end" font-family="Arial, Helvetica, sans-serif" font-size="10.2" font-weight="400" fill="#566C7D">SECONDARY ENDPOINT</text>
<line x1="442" y1="91" x2="691" y2="91" stroke="#9EB3C1" stroke-width="0.8"/>
<text x="461.5" y="111.72" text-anchor="middle" font-family="Arial, Helvetica, sans-serif" font-size="10.9" font-weight="700" fill="#566C7D">v8s</text>
<text x="503.5" y="111.72" text-anchor="middle" font-family="Arial, Helvetica, sans-serif" font-size="10.9" font-weight="700" fill="#566C7D">v8m</text>
<text x="545.5" y="111.72" text-anchor="middle" font-family="Arial, Helvetica, sans-serif" font-size="10.9" font-weight="700" fill="#566C7D">11s</text>
<text x="587.5" y="111.72" text-anchor="middle" font-family="Arial, Helvetica, sans-serif" font-size="10.9" font-weight="700" fill="#566C7D">11m</text>
<text x="629.5" y="111.72" text-anchor="middle" font-family="Arial, Helvetica, sans-serif" font-size="10.9" font-weight="700" fill="#566C7D">26s</text>
<text x="671.5" y="111.72" text-anchor="middle" font-family="Arial, Helvetica, sans-serif" font-size="10.9" font-weight="700" fill="#566C7D">26m</text>
<rect x="442" y="130" width="39" height="42" rx="3.2" fill="#507782" stroke="#D2E0E4" stroke-width="0.8"/>
<text x="461.5" y="151.96" text-anchor="middle" font-family="Arial, Helvetica, sans-serif" font-size="11.2" font-weight="700" fill="#FFFFFF">0.526</text>
<rect x="484" y="130" width="39" height="42" rx="3.2" fill="#70909A" stroke="#D2E0E4" stroke-width="0.8"/>
<text x="503.5" y="151.96" text-anchor="middle" font-family="Arial, Helvetica, sans-serif" font-size="11.2" font-weight="700" fill="#000000">0.367</text>
<rect x="526" y="130" width="39" height="42" rx="3.2" fill="#527884" stroke="#D2E0E4" stroke-width="0.8"/>
<text x="545.5" y="151.96" text-anchor="middle" font-family="Arial, Helvetica, sans-serif" font-size="11.2" font-weight="700" fill="#FFFFFF">0.516</text>
<rect x="568" y="130" width="39" height="42" rx="3.2" fill="#91AAB2" stroke="#D2E0E4" stroke-width="0.8"/>
<text x="587.5" y="151.96" text-anchor="middle" font-family="Arial, Helvetica, sans-serif" font-size="11.2" font-weight="700" fill="#000000">0.226</text>
<rect x="610" y="130" width="39" height="42" rx="3.2" fill="#3F6976" stroke="#D2E0E4" stroke-width="0.8"/>
<text x="629.5" y="151.96" text-anchor="middle" font-family="Arial, Helvetica, sans-serif" font-size="11.2" font-weight="700" fill="#FFFFFF">0.621</text>
<rect x="652" y="130" width="39" height="42" rx="3.2" fill="#587D88" stroke="#D2E0E4" stroke-width="0.8"/>
<text x="671.5" y="151.96" text-anchor="middle" font-family="Arial, Helvetica, sans-serif" font-size="11.2" font-weight="700" fill="#000000">0.482</text>
<rect x="442" y="178" width="39" height="42" rx="3.2" fill="#557B86" stroke="#D2E0E4" stroke-width="0.8"/>
<text x="461.5" y="199.96" text-anchor="middle" font-family="Arial, Helvetica, sans-serif" font-size="11.2" font-weight="700" fill="#000000">0.499</text>
<rect x="484" y="178" width="39" height="42" rx="3.2" fill="#3B6673" stroke="#D2E0E4" stroke-width="0.8"/>
<text x="503.5" y="199.96" text-anchor="middle" font-family="Arial, Helvetica, sans-serif" font-size="11.2" font-weight="700" fill="#FFFFFF">0.644</text>
<rect x="526" y="178" width="39" height="42" rx="3.2" fill="#557B86" stroke="#D2E0E4" stroke-width="0.8"/>
<text x="545.5" y="199.96" text-anchor="middle" font-family="Arial, Helvetica, sans-serif" font-size="11.2" font-weight="700" fill="#000000">0.496</text>
<rect x="568" y="178" width="39" height="42" rx="3.2" fill="#49727E" stroke="#D2E0E4" stroke-width="0.8"/>
<text x="587.5" y="199.96" text-anchor="middle" font-family="Arial, Helvetica, sans-serif" font-size="11.2" font-weight="700" fill="#FFFFFF">0.560</text>
<rect x="610" y="178" width="39" height="42" rx="3.2" fill="#3C6774" stroke="#D2E0E4" stroke-width="0.8"/>
<text x="629.5" y="199.96" text-anchor="middle" font-family="Arial, Helvetica, sans-serif" font-size="11.2" font-weight="700" fill="#FFFFFF">0.636</text>
<rect x="652" y="178" width="39" height="42" rx="3.2" fill="#3C6774" stroke="#D2E0E4" stroke-width="0.8"/>
<text x="671.5" y="199.96" text-anchor="middle" font-family="Arial, Helvetica, sans-serif" font-size="11.2" font-weight="700" fill="#FFFFFF">0.638</text>
<rect x="442" y="226" width="39" height="42" rx="3.2" fill="#265664" stroke="#D2E0E4" stroke-width="0.8"/>
<text x="461.5" y="247.96" text-anchor="middle" font-family="Arial, Helvetica, sans-serif" font-size="11.2" font-weight="700" fill="#FFFFFF">0.767</text>
<rect x="484" y="226" width="39" height="42" rx="3.2" fill="#285865" stroke="#D2E0E4" stroke-width="0.8"/>
<text x="503.5" y="247.96" text-anchor="middle" font-family="Arial, Helvetica, sans-serif" font-size="11.2" font-weight="700" fill="#FFFFFF">0.755</text>
<rect x="526" y="226" width="39" height="42" rx="3.2" fill="#2F5D6A" stroke="#D2E0E4" stroke-width="0.8"/>
<text x="545.5" y="247.96" text-anchor="middle" font-family="Arial, Helvetica, sans-serif" font-size="11.2" font-weight="700" fill="#FFFFFF">0.714</text>
<rect x="568" y="226" width="39" height="42" rx="3.2" fill="#265663" stroke="#D2E0E4" stroke-width="0.8"/>
<text x="587.5" y="247.96" text-anchor="middle" font-family="Arial, Helvetica, sans-serif" font-size="11.2" font-weight="700" fill="#FFFFFF">0.770</text>
<rect x="610" y="226" width="39" height="42" rx="3.2" fill="#20515F" stroke="#D2E0E4" stroke-width="0.8"/>
<text x="629.5" y="247.96" text-anchor="middle" font-family="Arial, Helvetica, sans-serif" font-size="11.2" font-weight="700" fill="#FFFFFF">0.810</text>
<rect x="652" y="226" width="39" height="42" rx="3.2" fill="#2A5966" stroke="#D2E0E4" stroke-width="0.8"/>
<text x="671.5" y="247.96" text-anchor="middle" font-family="Arial, Helvetica, sans-serif" font-size="11.2" font-weight="700" fill="#FFFFFF">0.745</text>
<rect x="442" y="274" width="39" height="42" rx="3.2" fill="#FCFBFE" stroke="#B7A7D1" stroke-width="0.8" stroke-dasharray="3.5 2.5"/>
<rect x="484" y="274" width="39" height="42" rx="3.2" fill="#FCFBFE" stroke="#B7A7D1" stroke-width="0.8" stroke-dasharray="3.5 2.5"/>
<rect x="526" y="274" width="39" height="42" rx="3.2" fill="#FCFBFE" stroke="#B7A7D1" stroke-width="0.8" stroke-dasharray="3.5 2.5"/>
<rect x="568" y="274" width="39" height="42" rx="3.2" fill="#FCFBFE" stroke="#B7A7D1" stroke-width="0.8" stroke-dasharray="3.5 2.5"/>
<rect x="610" y="274" width="39" height="42" rx="3.2" fill="#FCFBFE" stroke="#B7A7D1" stroke-width="0.8" stroke-dasharray="3.5 2.5"/>
<rect x="652" y="274" width="39" height="42" rx="3.2" fill="#FCFBFE" stroke="#B7A7D1" stroke-width="0.8" stroke-dasharray="3.5 2.5"/>
<rect x="28" y="134" width="4.2" height="34" rx="2.1" fill="#426F96"/>
<text x="42" y="151.92" text-anchor="start" font-family="Arial, Helvetica, sans-serif" font-size="12.4" font-weight="700" fill="#426F96">A</text>
<text x="60" y="151.72" text-anchor="start" font-family="Arial, Helvetica, sans-serif" font-size="10.9" font-weight="700" fill="#1B3448">Real 93</text>
<rect x="28" y="182" width="4.2" height="34" rx="2.1" fill="#B88232"/>
<text x="42" y="199.92" text-anchor="start" font-family="Arial, Helvetica, sans-serif" font-size="12.4" font-weight="700" fill="#B88232">B</text>
<text x="60" y="199.72" text-anchor="start" font-family="Arial, Helvetica, sans-serif" font-size="10.9" font-weight="700" fill="#1B3448">Augmented 1085</text>
<rect x="28" y="230" width="4.2" height="34" rx="2.1" fill="#178A93"/>
<text x="42" y="247.92" text-anchor="start" font-family="Arial, Helvetica, sans-serif" font-size="12.4" font-weight="700" fill="#178A93">C</text>
<text x="60" y="247.72" text-anchor="start" font-family="Arial, Helvetica, sans-serif" font-size="10.9" font-weight="700" fill="#1B3448">Image-edit 1085</text>
<rect x="28" y="278" width="4.2" height="34" rx="2.1" fill="#755CAD"/>
<text x="42" y="295.92" text-anchor="start" font-family="Arial, Helvetica, sans-serif" font-size="12.4" font-weight="700" fill="#755CAD">D</text>
<text x="60" y="295.72" text-anchor="start" font-family="Arial, Helvetica, sans-serif" font-size="10.9" font-weight="700" fill="#1B3448">LoRA T2I</text>
<line x1="28" y1="329" x2="692" y2="329" stroke="#C8D5DD" stroke-width="0.8"/>
<text x="28" y="351.16" text-anchor="start" font-family="Arial, Helvetica, sans-serif" font-size="10.2" font-weight="700" fill="#566C7D">AP scale</text>
<rect x="88" y="343" width="2.7" height="10" rx="0" fill="#F3F8FA"/>
<rect x="90.7" y="343" width="2.7" height="10" rx="0" fill="#D8E3E6"/>
<rect x="93.4" y="343" width="2.7" height="10" rx="0" fill="#CBD8DC"/>
<rect x="96.1" y="343" width="2.7" height="10" rx="0" fill="#BFCFD4"/>
<rect x="98.8" y="343" width="2.7" height="10" rx="0" fill="#B6C8CD"/>
<rect x="101.5" y="343" width="2.7" height="10" rx="0" fill="#ADC1C7"/>
<rect x="104.2" y="343" width="2.7" height="10" rx="0" fill="#A5BAC1"/>
<rect x="106.9" y="343" width="2.7" height="10" rx="0" fill="#9DB4BB"/>
<rect x="109.6" y="343" width="2.7" height="10" rx="0" fill="#96AFB6"/>
<rect x="112.3" y="343" width="2.7" height="10" rx="0" fill="#8FA9B1"/>
<rect x="115" y="343" width="2.7" height="10" rx="0" fill="#89A4AC"/>
<rect x="117.7" y="343" width="2.7" height="10" rx="0" fill="#839FA8"/>
<rect x="120.4" y="343" width="2.7" height="10" rx="0" fill="#7D9AA3"/>
<rect x="123.1" y="343" width="2.7" height="10" rx="0" fill="#77969F"/>
<rect x="125.8" y="343" width="2.7" height="10" rx="0" fill="#71919B"/>
<rect x="128.5" y="343" width="2.7" height="10" rx="0" fill="#6C8D97"/>
<rect x="131.2" y="343" width="2.7" height="10" rx="0" fill="#668993"/>
<rect x="133.9" y="343" width="2.7" height="10" rx="0" fill="#61858F"/>
<rect x="136.6" y="343" width="2.7" height="10" rx="0" fill="#5C818B"/>
<rect x="139.3" y="343" width="2.7" height="10" rx="0" fill="#577D88"/>
<rect x="142" y="343" width="2.7" height="10" rx="0" fill="#527984"/>
<rect x="144.7" y="343" width="2.7" height="10" rx="0" fill="#4D7581"/>
<rect x="147.4" y="343" width="2.7" height="10" rx="0" fill="#49717D"/>
<rect x="150.1" y="343" width="2.7" height="10" rx="0" fill="#446E7A"/>
<rect x="152.8" y="343" width="2.7" height="10" rx="0" fill="#406A76"/>
<rect x="155.5" y="343" width="2.7" height="10" rx="0" fill="#3B6673"/>
<rect x="158.2" y="343" width="2.7" height="10" rx="0" fill="#376370"/>
<rect x="160.9" y="343" width="2.7" height="10" rx="0" fill="#33606D"/>
<rect x="163.6" y="343" width="2.7" height="10" rx="0" fill="#2E5C6A"/>
<rect x="166.3" y="343" width="2.7" height="10" rx="0" fill="#2A5967"/>
<rect x="169" y="343" width="2.7" height="10" rx="0" fill="#265664"/>
<rect x="171.7" y="343" width="2.7" height="10" rx="0" fill="#225261"/>
<rect x="174.4" y="343" width="2.7" height="10" rx="0" fill="#1E4F5E"/>
<rect x="177.1" y="343" width="2.7" height="10" rx="0" fill="#1A4C5B"/>
<rect x="179.8" y="343" width="2.7" height="10" rx="0" fill="#164958"/>
<rect x="182.5" y="343" width="2.7" height="10" rx="0" fill="#124655"/>
<rect x="185.2" y="343" width="2.7" height="10" rx="0" fill="#0E4352"/>
<rect x="187.9" y="343" width="2.7" height="10" rx="0" fill="#0A404F"/>
<rect x="190.6" y="343" width="2.7" height="10" rx="0" fill="#073D4D"/>
<rect x="193.3" y="343" width="2.7" height="10" rx="0" fill="#033A4A"/>
<text x="84" y="364" text-anchor="end" font-family="Arial, Helvetica, sans-serif" font-size="10" font-weight="400" fill="#566C7D">0</text>
<text x="200" y="364" text-anchor="start" font-family="Arial, Helvetica, sans-serif" font-size="10" font-weight="400" fill="#566C7D">1</text>
<text x="237" y="352.24" text-anchor="start" font-family="Arial, Helvetica, sans-serif" font-size="10.3" font-weight="400" fill="#566C7D">D cells are intentionally empty until validated results are available.</text>
</svg>
